<svg
      className="w-12 h-12"
      viewBox="0 0 100 100"
      fill="none"
      xmlns="http://www.w3.org/2000/svg"
    >
      {/* Background */}
      <rect width="100" height="100" rx="20" fill="#2563EB" />

      {/* Document shape */}
      <path
        d="M30 25H70V75H30V25Z"
        fill="white"
      />
      <path
        d="M35 35H65M35 45H65M35 55H55"
        stroke="#BFDBFE"
        strokeWidth="3"
        strokeLinecap="round"
      />

      {/* Circuit board pattern */}
      <path
        d="M40 65H60M50 65V75"
        stroke="#60A5FA"
        strokeWidth="2"
        strokeLinecap="round"
      />
      <circle cx="40" cy="65" r="2" fill="#60A5FA" />
      <circle cx="60" cy="65" r="2" fill="#60A5FA" />
      <circle cx="50" cy="75" r="2" fill="#60A5FA" />

      {/* AI symbol */}
      <path
        d="M75 60C75 57.2386 77.2386 55 80 55C82.7614 55 85 57.2386 85 60V70C85 72.7614 82.7614 75 80 75C77.2386 75 75 72.7614 75 70V60Z"
        fill="#BFDBFE"
      />
      <path
        d="M80 55V75M75 65H85"
        stroke="#2563EB"
        strokeWidth="2"
        strokeLinecap="round"
      />
    </svg>